<svg width="60" height="60" viewBox="0 0 60 60" fill="none" xmlns="http://www.w3.org/2000/svg">
<path d="M41.898 0H18.102C8.10454 0 0 8.10454 0 18.102V41.898C0 51.8955 8.10454 60 18.102 60H41.898C51.8955 60 60 51.8955 60 41.898V18.102C60 8.10454 51.8955 0 41.898 0Z" fill="#FBAD20"/>
<path d="M23.7532 19.8984C23.6244 19.9812 23.077 19.8754 22.9068 19.8708C22.5986 19.8708 22.2904 19.8708 21.9822 19.8708C21.375 19.8754 20.7678 19.8846 20.1606 19.834C19.0796 19.7512 17.0832 19.4706 16.6462 18.2654C17.2902 17.9112 18.3114 18.2792 18.96 18.4356C19.9168 18.6702 20.8966 18.8082 21.8856 18.8404C23.8314 18.9048 25.768 18.569 27.6172 17.9664C30.7774 16.9406 33.8594 17.4926 36.8724 18.569C38.4088 19.1164 39.8578 19.7788 41.4908 18.914C41.8128 18.7438 42.3418 18.937 42.2038 19.3694C42.144 19.5488 41.9922 19.6776 41.8358 19.7742C41.3344 20.0962 40.8284 20.248 40.2396 20.3538C39.2828 20.524 38.3306 20.3814 37.4566 19.9536C36.1042 19.2958 34.554 19.0014 33.0636 18.6886C30.2668 18.0998 27.6908 18.753 25.2896 20.2526C23.4082 21.4302 21.8258 22.7366 21.8396 25.2758C21.8442 26.1498 21.3566 27.033 21.076 27.9024C20.7218 29.0018 21.1634 29.7056 22.3042 29.8298C24.2454 30.046 25.6668 29.0708 26.1636 27.148C27.0514 23.721 30.9798 22.0604 33.8134 24.7652C37.2312 28.0312 40.902 31.0488 44.5314 34.0802C44.9224 33.2936 45.0834 32.3552 45.7182 31.7434C46.1414 31.3386 46.7164 31.1408 47.2684 30.9568C47.4662 30.8924 47.6686 30.828 47.871 30.897C48.3632 31.0672 48.0596 31.61 47.7468 31.8216C47.6502 31.886 47.5352 31.9136 47.4248 31.9504C46.422 32.2816 45.9942 33.2338 45.7182 34.1768C45.6216 34.5034 45.7182 35.0738 45.9528 35.2762C46.9786 36.1732 47.5306 37.2128 46.9786 38.5238C46.4174 39.8532 45.3042 40.4926 43.8598 40.5386C43.731 40.5386 43.6022 40.5754 43.4826 40.5938C43.041 43.0502 41.7852 44.2554 39.062 43.6896C37.8338 46.3392 36.6884 46.7578 34.2136 45.387C33.6846 46.7762 32.7416 47.9952 31.1914 47.6594C29.8988 47.3834 28.7488 46.4542 27.4562 45.7734C24.6318 47.8204 23.7992 47.802 22.4652 45.4652C21.0346 45.6308 19.834 45.2582 19.2912 43.6942C19.236 43.5286 18.9094 43.3676 18.707 43.3584C17.373 43.294 16.6508 42.5258 16.2598 41.2654C15.8918 41.2378 15.5008 41.247 15.1282 41.1734C12.9984 40.7502 12.1382 38.3444 13.5688 36.7114C14.1668 36.0306 14.8936 35.4648 15.8596 34.5724C14.0886 33.4638 12.5798 32.553 11.1124 31.5778C10.7858 31.3616 10.611 30.92 10.3672 30.5796C10.7536 30.598 11.2044 30.5014 11.5172 30.6624C12.5982 31.2282 13.6746 31.8124 14.6636 32.5208C15.5928 33.1878 16.2598 34.002 17.7088 33.5098C19.052 33.059 20.2434 34.3194 20.6804 36.2514C21.9638 36.44 22.617 37.268 23.4036 38.3858C24.1488 39.4484 25.2988 40.5616 26.343 41.339C27.5344 42.2314 28.4406 42.7558 28.321 44.3934C28.2474 45.456 31.0534 46.951 32.047 46.4956C33.1786 45.9758 33.3672 44.7522 32.3782 43.9794C31.173 43.0364 29.885 42.1992 28.6798 41.2562C28.5096 41.1228 28.2382 40.8882 28.1968 40.6628C28.0174 39.7382 29.4204 40.511 29.7148 40.6858C30.3128 41.0446 30.8188 41.5322 31.3846 41.9324C32.4978 42.7282 33.6018 43.5332 34.7104 44.329C35.2072 44.6878 35.75 45.0604 36.3618 45.0558C37.2266 45.0512 37.9672 44.1312 37.7832 43.2848C37.636 42.6132 37.0518 42.1394 36.5044 41.7208C35.106 40.6536 33.703 39.591 32.3046 38.5238C31.5732 37.9672 30.8004 37.3554 30.5014 36.486C31.2144 36.624 31.7204 36.8126 32.3368 37.199C33.0176 37.7188 33.703 38.234 34.3838 38.7584C35.7454 39.8026 37.0932 40.8606 38.4548 41.9048C38.7998 42.1716 39.1494 42.4568 39.545 42.6224C40.5294 43.041 41.385 42.7374 41.9508 41.8772C42.5396 40.9848 42.213 40.2212 41.3942 39.614C39.844 38.464 38.2984 37.3094 36.7482 36.1548C35.9754 35.5798 35.2026 35.0002 34.4252 34.4252C33.8042 33.9606 33.013 33.6616 32.484 33.0636C32.3138 32.8704 31.8998 32.2816 32.1436 32.0102C32.4794 31.633 33.3764 32.3368 33.6294 32.5254C36.4032 34.5908 39.1494 36.693 41.9738 38.6894C42.5948 39.131 43.524 39.453 44.2462 39.3518C44.8948 39.2598 45.7274 38.6158 45.9574 38.0132C46.1414 37.5348 45.7182 36.555 45.2582 36.1456C41.8634 33.1142 38.3904 30.1656 34.9404 27.194C34.3102 26.6512 33.611 26.1728 33.0636 25.5518C31.012 23.2288 27.9208 24.7146 27.1986 27.3504C26.5408 29.7562 25.4736 30.6256 22.9528 30.8556C20.5424 31.0764 19.3372 29.4618 20.2112 27.2124C20.4458 26.6052 20.7494 25.9704 20.7724 25.3356C20.8644 23.031 21.7246 21.1864 23.7486 19.8662L23.7532 19.8984ZM19.6914 36.072C19.6592 35.635 18.8864 34.853 18.6058 34.7518C18.0906 34.5724 17.2672 34.6736 16.8348 34.991C15.9332 35.6626 15.1742 36.5412 14.3968 37.3738C13.7298 38.0868 13.7068 38.8964 14.383 39.6048C16.2046 41.523 18.9922 37.6682 19.6684 36.2054C19.6868 36.164 19.6914 36.118 19.6914 36.0674V36.072ZM22.3226 38.6204C22.3088 38.5744 22.2858 38.533 22.2582 38.4962C22.111 38.2432 21.9546 37.9902 21.7384 37.797C21.352 37.4566 20.6068 37.4152 20.1928 37.7602C19.2958 38.51 18.408 39.3196 17.7318 40.2626C17.4742 40.6214 17.5984 41.5506 17.9066 41.9278C18.4816 42.6362 19.6408 41.7714 20.0686 41.3896C20.892 40.6582 21.6924 39.8762 22.2536 38.9194C22.295 38.8458 22.341 38.7676 22.3318 38.6848C22.3318 38.6618 22.3272 38.6434 22.318 38.625L22.3226 38.6204ZM23.7854 39.982C22.7734 39.9682 20.271 42.4154 20.3676 43.1744C20.478 44.0162 21.2692 44.6096 22.0926 44.26C22.4928 44.0898 22.8056 43.7724 23.1046 43.4596C23.399 43.156 23.6934 42.8478 23.9924 42.5442C24.2776 42.2498 24.5674 41.9416 24.6916 41.5552C24.94 40.7778 24.2914 40.4098 23.7854 39.982ZM24.5904 46.2978C25.1746 46.4818 25.8232 45.9068 26.3614 45.4974C26.8996 45.0834 27.3734 44.5176 27.3182 43.8C27.1296 41.3988 25.0458 43.2388 24.2362 44.0944C24.0108 44.3336 23.7716 44.5958 23.7302 44.9224C23.6888 45.249 23.859 45.5572 24.0384 45.8286C24.2132 46.0908 24.4018 46.2334 24.595 46.2932L24.5904 46.2978Z" fill="#00324D"/>
</svg>
