<svg width="49" height="49" viewBox="0 0 49 49" fill="none" xmlns="http://www.w3.org/2000/svg">
<path d="M33.6734 0H14.5486C6.51362 0 0 6.51362 0 14.5486V33.6734C0 41.7084 6.51362 48.222 14.5486 48.222H33.6734C41.7084 48.222 48.222 41.7084 48.222 33.6734V14.5486C48.222 6.51362 41.7084 0 33.6734 0Z" fill="white"/>
<path d="M24.7618 5.00581C25.2734 5.27326 25.4246 5.7035 25.4129 6.26746C25.3839 7.58144 25.4129 8.8896 25.4013 10.2036C25.4013 10.7675 25.0757 11.1687 24.6048 11.2152C24.0815 11.2675 23.6106 10.8896 23.6048 10.3431C23.5873 8.86053 23.5931 7.37795 23.6048 5.89536C23.6048 5.4535 23.9129 5.21512 24.2501 5H24.7618V5.00581Z" fill="#00324D"/>
<path d="M35.3264 23.5816C35.274 29.4829 30.4775 34.2678 24.6285 34.2446C18.7214 34.2213 13.89 29.3608 13.9597 23.4886C14.0237 17.5815 18.8435 12.8198 24.6867 12.8721C30.5763 12.9245 35.3031 17.6629 35.3264 23.5816ZM24.425 14.657C21.2913 14.814 18.7912 16.1222 17.1168 18.7443C15.0935 21.9188 15.1051 25.2212 17.1342 28.384C18.8028 30.9887 21.3029 32.2853 24.4192 32.4422V14.6512L24.425 14.657Z" fill="#00324D"/>
<path d="M25.4068 39.1282C25.4068 39.8549 25.4068 40.5875 25.4068 41.3143C25.4068 41.9422 25.0231 42.3666 24.4882 42.355C23.9708 42.3433 23.6103 41.9247 23.6045 41.3084C23.6045 39.8491 23.6045 38.3956 23.6045 36.9363C23.6045 36.3258 23.9708 35.9014 24.4882 35.8898C25.0173 35.8781 25.401 36.3142 25.4068 36.9363C25.4068 37.663 25.4068 38.3956 25.4068 39.1224V39.1282Z" fill="#00324D"/>
<path d="M9.09308 22.6629C9.79658 22.6629 10.5001 22.6629 11.2036 22.6629C11.785 22.6629 12.1978 23.035 12.2094 23.5466C12.221 24.0524 11.8141 24.4536 11.2385 24.4594C9.81983 24.471 8.4012 24.471 6.97676 24.4594C6.38954 24.4594 6 24.0757 6 23.5582C6 23.0408 6.40117 22.6687 6.98257 22.6629C7.68607 22.657 8.38958 22.6629 9.09308 22.6629Z" fill="#00324D"/>
<path d="M40.0058 24.4659C39.314 24.4659 38.6221 24.4659 37.9302 24.4659C37.2965 24.4659 36.8721 24.0938 36.8721 23.5589C36.8721 23.024 37.2965 22.6636 37.936 22.6636C39.2965 22.6636 40.657 22.6636 42.0117 22.6636C42.6629 22.6636 43.0698 23.0066 43.0757 23.5473C43.0815 24.1055 42.6687 24.4601 42.0001 24.4659C41.3314 24.4659 40.6628 24.4659 40 24.4659H40.0058Z" fill="#00324D"/>
<path d="M34.0704 32.0639C34.2739 32.1744 34.5181 32.25 34.6809 32.4069C35.7216 33.4244 36.7507 34.4535 37.774 35.4884C38.1403 35.8605 38.1403 36.4245 37.8031 36.7675C37.4658 37.1163 36.9019 37.1338 36.524 36.7675C35.4658 35.7326 34.4251 34.6802 33.3844 33.6279C33.0995 33.3372 33.0588 32.9825 33.2158 32.6163C33.3669 32.2674 33.6635 32.1221 34.0646 32.0581L34.0704 32.0639Z" fill="#00324D"/>
<path d="M12.2385 10.1918C12.3722 10.2674 12.6222 10.3488 12.7967 10.5174C13.8199 11.5174 14.8316 12.5348 15.8374 13.5523C16.2386 13.9593 16.2502 14.5232 15.8781 14.8837C15.5176 15.2326 14.9711 15.2151 14.5758 14.8198C13.5583 13.8139 12.5467 12.7965 11.535 11.7848C11.2269 11.4767 11.1513 11.1162 11.3141 10.7209C11.4594 10.3662 11.7676 10.2325 12.2443 10.1918H12.2385Z" fill="#00324D"/>
<path d="M12.2562 37.0413C11.7678 37.018 11.4771 36.8901 11.326 36.5587C11.1573 36.1983 11.1806 35.8436 11.4597 35.5471C11.9132 35.0703 12.3783 34.6168 12.8434 34.1517C13.4074 33.5819 13.9713 33.018 14.5411 32.454C14.9655 32.0354 15.5411 32.0121 15.9016 32.3842C16.2563 32.7563 16.2272 33.297 15.8144 33.7157C14.8202 34.7157 13.8318 35.7157 12.826 36.6983C12.6457 36.8727 12.3899 36.9715 12.262 37.0471L12.2562 37.0413Z" fill="#00324D"/>
<path d="M33.0762 14.2089C33.1925 13.9938 33.2739 13.738 33.4366 13.5694C34.4425 12.5345 35.4657 11.517 36.4948 10.4996C36.8844 10.1158 37.4425 10.11 37.7972 10.4589C38.146 10.8077 38.1402 11.3775 37.7565 11.7612C36.739 12.7903 35.7158 13.8078 34.6983 14.8252C34.4018 15.1217 34.0471 15.1973 33.6634 15.0403C33.3204 14.9008 33.1459 14.6159 33.0762 14.2031V14.2089Z" fill="#00324D"/>
</svg>
