<svg width="47" height="47" viewBox="0 0 47 47" fill="none" xmlns="http://www.w3.org/2000/svg">
<path d="M32.4919 0H14.0381C6.28507 0 0 6.28507 0 14.0381V32.4919C0 40.2449 6.28507 46.53 14.0381 46.53H32.4919C40.2449 46.53 46.53 40.2449 46.53 32.4919V14.0381C46.53 6.28507 40.2449 0 32.4919 0Z" fill="white"/>
<path d="M26.8535 33.6259H22.0414L20.1916 28.2081H11.6733L9.82345 33.6259H5.07715L13.1873 11.4084H18.7433L26.8535 33.6259ZM12.7134 24.7718H19.1449L15.9127 15.0751L12.7134 24.7718Z" fill="#00324D"/>
<path d="M35.3446 15.9055V28.5021H32.5914V15.9055H35.3446ZM39.9983 20.9247V23.4586H27.9134V20.9247H39.9983Z" fill="#00324D"/>
</svg>
